<svg viewBox="0 0 800 600" width="1000" height="750" xmlns="http://www.w3.org/2000/svg">
  <!-- 背景 -->
  <rect x="0" y="0" width="800" height="600" fill="#f5f5f5"/>
  
  <!-- 標題 -->
  <text x="400" y="30" font-family="Arial" font-size="20" text-anchor="middle" font-weight="bold">EC-Simple 系統架構圖</text>
  
  <!-- Kubernetes 集群 -->
  <rect x="50" y="60" width="700" height="500" fill="#e6f7ff" stroke="#1890ff" stroke-width="2" rx="10"/>
  <text x="400" y="80" font-family="Arial" font-size="16" text-anchor="middle">Kubernetes 集群</text>
  
  <!-- API Gateway -->
  <rect x="100" y="100" width="600" height="60" fill="#ffffff" stroke="#1890ff" stroke-width="2" rx="5"/>
  <text x="400" y="135" font-family="Arial" font-size="14" text-anchor="middle">API Gateway / Ingress Controller</text>
  
  <!-- 微服務區域 -->
  <rect x="100" y="180" width="600" height="260" fill="#fafafa" stroke="#d9d9d9" stroke-width="2" rx="5"/>
  <text x="400" y="200" font-family="Arial" font-size="14" text-anchor="middle" font-weight="bold">微服務</text>
  
  <!-- 個別微服務 -->
  <rect x="120" y="220" width="120" height="60" fill="#ffffff" stroke="#52c41a" stroke-width="2" rx="5"/>
  <text x="180" y="255" font-family="Arial" font-size="12" text-anchor="middle">API 服務</text>
  
  <rect x="260" y="220" width="120" height="60" fill="#ffffff" stroke="#52c41a" stroke-width="2" rx="5"/>
  <text x="320" y="255" font-family="Arial" font-size="12" text-anchor="middle">訂單服務</text>
  
  <rect x="400" y="220" width="120" height="60" fill="#ffffff" stroke="#52c41a" stroke-width="2" rx="5"/>
  <text x="460" y="255" font-family="Arial" font-size="12" text-anchor="middle">庫存服務</text>
  
  <rect x="540" y="220" width="120" height="60" fill="#ffffff" stroke="#52c41a" stroke-width="2" rx="5"/>
  <text x="600" y="255" font-family="Arial" font-size="12" text-anchor="middle">商品服務</text>
  
  <!-- 電商連接器 -->
  <rect x="120" y="300" width="120" height="120" fill="#ffffff" stroke="#fa8c16" stroke-width="2" rx="5"/>
  <text x="180" y="320" font-family="Arial" font-size="12" text-anchor="middle">蝦皮連接器</text>
  <line x1="120" y1="330" x2="240" y2="330" stroke="#d9d9d9" stroke-width="1"/>
  <text x="180" y="350" font-family="Arial" font-size="10" text-anchor="middle">訂單同步</text>
  <text x="180" y="370" font-family="Arial" font-size="10" text-anchor="middle">庫存更新</text>
  <text x="180" y="390" font-family="Arial" font-size="10" text-anchor="middle">商品管理</text>
  
  <rect x="260" y="300" width="120" height="120" fill="#ffffff" stroke="#fa8c16" stroke-width="2" rx="5"/>
  <text x="320" y="320" font-family="Arial" font-size="12" text-anchor="middle">PChome連接器</text>
  <line x1="260" y1="330" x2="380" y2="330" stroke="#d9d9d9" stroke-width="1"/>
  <text x="320" y="350" font-family="Arial" font-size="10" text-anchor="middle">訂單同步</text>
  <text x="320" y="370" font-family="Arial" font-size="10" text-anchor="middle">庫存更新</text>
  
  <rect x="400" y="300" width="120" height="120" fill="#ffffff" stroke="#fa8c16" stroke-width="2" rx="5"/>
  <text x="460" y="320" font-family="Arial" font-size="12" text-anchor="middle">Yahoo連接器</text>
  <line x1="400" y1="330" x2="520" y2="330" stroke="#d9d9d9" stroke-width="1"/>
  <text x="460" y="350" font-family="Arial" font-size="10" text-anchor="middle">訂單同步</text>
  <text x="460" y="370" font-family="Arial" font-size="10" text-anchor="middle">庫存更新</text>
  
  <rect x="540" y="300" width="120" height="120" fill="#ffffff" stroke="#fa8c16" stroke-width="2" rx="5"/>
  <text x="600" y="320" font-family="Arial" font-size="12" text-anchor="middle">其他平台連接器</text>
  <line x1="540" y1="330" x2="660" y2="330" stroke="#d9d9d9" stroke-width="1"/>
  <text x="600" y="360" font-family="Arial" font-size="10" text-anchor="middle">可擴展...</text>
  
  <!-- 資料層 -->
  <rect x="100" y="460" width="280" height="80" fill="#ffffff" stroke="#722ed1" stroke-width="2" rx="5"/>
  <text x="240" y="490" font-family="Arial" font-size="12" text-anchor="middle">PostgreSQL 資料庫</text>
  <text x="240" y="510" font-family="Arial" font-size="10" text-anchor="middle">訂單、商品、庫存資料</text>
  
  <!-- 消息佇列 -->
  <rect x="400" y="460" width="300" height="80" fill="#ffffff" stroke="#eb2f96" stroke-width="2" rx="5"/>
  <text x="550" y="490" font-family="Arial" font-size="12" text-anchor="middle">消息佇列 (Kafka/RabbitMQ)</text>
  <text x="550" y="510" font-family="Arial" font-size="10" text-anchor="middle">事件驅動通訊</text>
  
  <!-- 連接線 -->
  <!-- API Gateway 到微服務 -->
  <line x1="400" y1="160" x2="400" y2="180" stroke="#1890ff" stroke-width="2"/>
  
  <!-- 微服務到資料庫和消息佇列 -->
  <line x1="240" y1="440" x2="240" y2="460" stroke="#722ed1" stroke-width="2"/>
  <line x1="550" y1="440" x2="550" y2="460" stroke="#eb2f96" stroke-width="2"/>
  
  <!-- 圖例 -->
  <rect x="650" y="70" width="10" height="10" fill="#ffffff" stroke="#1890ff" stroke-width="2"/>
  <text x="665" y="80" font-family="Arial" font-size="10">系統邊界</text>
  
  <rect x="650" y="90" width="10" height="10" fill="#ffffff" stroke="#52c41a" stroke-width="2"/>
  <text x="665" y="100" font-family="Arial" font-size="10">核心服務</text>
  
  <rect x="650" y="110" width="10" height="10" fill="#ffffff" stroke="#fa8c16" stroke-width="2"/>
  <text x="665" y="120" font-family="Arial" font-size="10">平台連接器</text>
</svg>